<svg width="24" height="24" viewBox="0 0 24 24" fill="none" xmlns="http://www.w3.org/2000/svg">
    <path d="M12 1C5.93436 1 1 5.93436 1 12C1 18.0656 5.93436 23 12 23C18.0656 23 23 18.0656 23 12C23 5.93436 18.0656 1 12 1ZM16.8125 12.9166H12.9166V16.8125C12.9166 17.3186 12.5061 17.7291 12 17.7291C11.4939 17.7291 11.0834 17.3186 11.0834 16.8125V12.9166H7.1875C6.68144 12.9166 6.27089 12.5061 6.27089 12C6.27089 11.4939 6.68144 11.0834 7.1875 11.0834H11.0834V7.1875C11.0834 6.68144 11.4939 6.27089 12 6.27089C12.5061 6.27089 12.9166 6.68144 12.9166 7.1875V11.0834H16.8125C17.3186 11.0834 17.7291 11.4939 17.7291 12C17.7291 12.5061 17.3186 12.9166 16.8125 12.9166Z" fill="#41a93d"/>
</svg>
