<svg width="16" height="16" viewBox="0 0 16 16" fill="none" xmlns="http://www.w3.org/2000/svg">
    <g clip-path="url(#clip0_210_1272)">
        <path d="M13.6565 12.2997L9.24332 7.91316L13.5566 3.59987C13.9324 3.22405 13.9324 2.61895 13.5566 2.24313C13.1809 1.86742 12.5757 1.8673 12.1999 2.24313L7.91305 6.55654L3.6994 2.34289C3.32358 1.96706 2.71848 1.96706 2.34266 2.34289C1.96695 2.71859 1.96695 3.32369 2.34278 3.69951L6.54978 7.90651L2.24955 12.2067C1.87396 12.5823 1.87372 13.1877 2.24955 13.5635C2.62537 13.9393 3.23071 13.9391 3.60629 13.5635L7.9064 9.26338L12.2996 13.6566C12.6754 14.0324 13.2808 14.0322 13.6564 13.6566C14.0323 13.2807 14.0289 12.6722 13.6565 12.2997Z" fill="#41a93d"/>
    </g>
    <defs>
        <clipPath id="clip0_210_1272">
            <rect width="16" height="16" fill="white"/>
        </clipPath>
    </defs>
</svg>
